# xmcd
#
# Track frame offsets:
#	150
#	14480
#	29370
#	45009
#	68409
#	82388
#	100016
#	115992
#	130205
#	146009
#	160805
#	175944
#	195430
#	209348
#	224663
#	244100
#	262362
#	279935
#	294590
#	314535
#
# Disc length: 4365 seconds
#
# Revision: 1
# Processed by: cddbd v1.5.2PL0 Copyright (c) Steve Scherf et al.
# Submitted via: audiograbber 1.83.01
#
DISCID=2d110b14
DTITLE=Clarke,Mick - Ramdango/Crazy Blues/Shake it up! [CD1]
DYEAR=2016
DGENRE=Blues
TTITLE0=Baked potatoes (from "Ramdango")
TTITLE1=Helping hand (from "Ramdango")
TTITLE2=Mojo go (from "Ramdango")
TTITLE3=Who's educating who? (from "Ramdango")
TTITLE4=Curry night (from "Ramdango")
TTITLE5=Ramdango (from "Ramdango")
TTITLE6=Behave Christine behave (from "Ramdango")
TTITLE7=Collapso (from "Ramdango")
TTITLE8=False information (from "Ramdango")
TTITLE9=The snarl (from "Ramdango")
TTITLE10=Ton (from "Ramdango")
TTITLE11=Talk (from "Ramdango")
TTITLE12=What if (from "Ramdango")
TTITLE13=That's no way to get along (from "Crazy Blues")
TTITLE14=Complicated woman (from "Crazy Blues")
TTITLE15=The thing (from "Crazy Blues")
TTITLE16=Stretch (from "Crazy Blues")
TTITLE17=Lovin' heart (from "Crazy Blues")
TTITLE18=Rain (from "Crazy Blues")
TTITLE19=See you later alligator (from "Crazy Blues")
EXTD=
EXTT0=
EXTT1=
EXTT2=
EXTT3=
EXTT4=
EXTT5=
EXTT6=
EXTT7=
EXTT8=
EXTT9=
EXTT10=
EXTT11=
EXTT12=
EXTT13=
EXTT14=
EXTT15=
EXTT16=
EXTT17=
EXTT18=
EXTT19=
PLAYORDER=
